<?xml version="1.0" encoding="UTF-8" standalone="no"?>
<!-- Generator: Adobe Illustrator 12.0.0, SVG Export Plug-In . SVG Version: 6.00 Build 51448)  -->

<svg
   xmlns:dc="http://purl.org/dc/elements/1.1/"
   xmlns:cc="http://creativecommons.org/ns#"
   xmlns:rdf="http://www.w3.org/1999/02/22-rdf-syntax-ns#"
   xmlns:svg="http://www.w3.org/2000/svg"
   xmlns="http://www.w3.org/2000/svg"
   xmlns:sodipodi="http://sodipodi.sourceforge.net/DTD/sodipodi-0.dtd"
   xmlns:inkscape="http://www.inkscape.org/namespaces/inkscape"
   style="overflow:visible"
   sodipodi:docname="DNS66 icon.svg"
   xml:space="preserve"
   enable-background="new 0 0 384 384"
   overflow="visible"
   viewBox="0 0 512 512"
   height="512"
   width="512"
   id="Layer_1"
   version="1.1"
   inkscape:version="0.92.1 r"
   inkscape:export-xdpi="101.03"
   inkscape:export-ydpi="101.03"><title
     id="title4510">DNS66 icon</title><sodipodi:namedview
     inkscape:current-layer="Layer_1"
     inkscape:window-maximized="1"
     inkscape:window-y="27"
     inkscape:window-x="67"
     inkscape:cy="364.61263"
     inkscape:cx="311.93339"
     inkscape:zoom="0.38"
     showgrid="false"
     id="namedview31"
     inkscape:window-height="708"
     inkscape:window-width="1299"
     inkscape:pageshadow="2"
     inkscape:pageopacity="0"
     guidetolerance="10"
     gridtolerance="10"
     objecttolerance="10"
     borderopacity="1"
     bordercolor="#666666"
     pagecolor="#ffffff"
     inkscape:snap-global="false" /><metadata
     id="metadata35"><rdf:RDF><cc:Work
         rdf:about=""><dc:format>image/svg+xml</dc:format><dc:type
           rdf:resource="http://purl.org/dc/dcmitype/StillImage" /><dc:title>DNS66 icon</dc:title><cc:license
           rdf:resource="http://creativecommons.org/licenses/by-sa/4.0/" /><dc:creator><cc:Agent><dc:title>Markus S. &lt;kamikazow@web.de&gt;</dc:title></cc:Agent></dc:creator><dc:contributor><cc:Agent><dc:title>Based on Public Domain U.S. &quot;Route 66&quot; sign</dc:title></cc:Agent></dc:contributor><dc:rights><cc:Agent><dc:title>CC-BY-SA 4.0</dc:title></cc:Agent></dc:rights></cc:Work><cc:License
         rdf:about="http://creativecommons.org/licenses/by-sa/4.0/"><cc:permits
           rdf:resource="http://creativecommons.org/ns#Reproduction" /><cc:permits
           rdf:resource="http://creativecommons.org/ns#Distribution" /><cc:requires
           rdf:resource="http://creativecommons.org/ns#Notice" /><cc:requires
           rdf:resource="http://creativecommons.org/ns#Attribution" /><cc:permits
           rdf:resource="http://creativecommons.org/ns#DerivativeWorks" /><cc:requires
           rdf:resource="http://creativecommons.org/ns#ShareAlike" /></cc:License></rdf:RDF></metadata><defs
     id="defs33"><clipPath
       clipPathUnits="userSpaceOnUse"
       id="clipPath4890"><circle
         style="opacity:1;fill:#009587;fill-opacity:1;fill-rule:nonzero;stroke:none;stroke-width:5.72815514;stroke-miterlimit:4;stroke-dasharray:none;stroke-opacity:1"
         id="circle4892"
         cx="738.01288"
         cy="188.26385"
         r="278.67963" /></clipPath><clipPath
       clipPathUnits="userSpaceOnUse"
       id="clipPath4942"><circle
         style="opacity:1;fill:#009587;fill-opacity:1;fill-rule:nonzero;stroke:none;stroke-width:5;stroke-miterlimit:4;stroke-dasharray:none;stroke-opacity:1"
         id="circle4944"
         cx="256"
         cy="256"
         r="243.25424"
         transform="rotate(-135)" /></clipPath><clipPath
       clipPathUnits="userSpaceOnUse"
       id="clipPath4942-8"><circle
         style="opacity:1;fill:#009587;fill-opacity:1;fill-rule:nonzero;stroke:none;stroke-width:5;stroke-miterlimit:4;stroke-dasharray:none;stroke-opacity:1"
         id="circle4944-7"
         cx="256"
         cy="256"
         r="243.25424"
         transform="rotate(-135)" /></clipPath></defs><g
     id="g4989"><circle
       style="opacity:1;fill:#009587;fill-opacity:1;fill-rule:nonzero;stroke:none;stroke-width:5;stroke-miterlimit:4;stroke-dasharray:none;stroke-opacity:1"
       id="path4526"
       cx="256"
       cy="256"
       r="243.25424" /><rect
       ry="0"
       clip-path="url(#clipPath4942)"
       transform="rotate(135)"
       y="-618.12207"
       x="-187.36002"
       height="278.3992"
       width="367.22382"
       id="rect4902"
       style="opacity:0.5;fill:#000000;fill-opacity:1;fill-rule:nonzero;stroke:none;stroke-width:5.77776718;stroke-miterlimit:4;stroke-dasharray:none;stroke-opacity:1" /><g
       id="g22"
       transform="matrix(0.87288136,0,0,0.87288136,88.406779,88.406779)"><g
         id="g6"><path
           d="M 192,0.003418 C 177.13184,14.054688 157.07227,22.669922 135,22.669922 112.92676,22.669922 92.868164,14.052246 78,0 L 0,80.771484 C 19.416016,95.164551 32,118.25 32,144.27588 32,160.76367 26.948242,176.07324 18.30957,188.73877 6.793457,205.58789 0,226.05078 0,248 c 0,57.78711 46.680176,104.66992 104.39063,104.99805 33.27783,0 63.58496,11.61132 87.60937,31.00195 24.02441,-19.39063 54.33203,-31.00195 87.60937,-31.00195 C 337.31934,352.66992 384,305.78711 384,248 384,226.05078 377.20703,205.58789 365.69043,188.73877 357.05176,176.07324 352,160.76367 352,144.27588 352,118.25 364.58398,95.164551 384,80.771484 L 306,0 c -14.86816,14.052246 -34.92676,22.669922 -57,22.669922 -22.07227,0 -42.13184,-8.615234 -57,-22.666504 z"
           id="path2"
           inkscape:connector-curvature="0"
           style="clip-rule:evenodd;fill:#ffffff;fill-rule:evenodd" /><path
           stroke-miterlimit="3.863693"
           d="M 192,0.003418 C 177.13184,14.054688 157.07227,22.669922 135,22.669922 112.92676,22.669922 92.868164,14.052246 78,0 L 0,80.771484 C 19.416016,95.164551 32,118.25 32,144.27588 32,160.76367 26.948242,176.07324 18.30957,188.73877 6.793457,205.58789 0,226.05078 0,248 c 0,57.78711 46.680176,104.66992 104.39063,104.99805 33.27783,0 63.58496,11.61132 87.60937,31.00195 24.02441,-19.39063 54.33203,-31.00195 87.60937,-31.00195 C 337.31934,352.66992 384,305.78711 384,248 384,226.05078 377.20703,205.58789 365.69043,188.73877 357.05176,176.07324 352,160.76367 352,144.27588 352,118.25 364.58398,95.164551 384,80.771484 L 306,0 c -14.86816,14.052246 -34.92676,22.669922 -57,22.669922 -22.07227,0 -42.13184,-8.615234 -57,-22.666504 z"
           id="path4"
           inkscape:connector-curvature="0"
           style="clip-rule:evenodd;fill:none;fill-rule:evenodd;stroke:#000000;stroke-width:0;stroke-linecap:round;stroke-linejoin:round;stroke-miterlimit:3.863693" /></g><g
         id="g10"><path
           d="m 303.87207,28.027344 50.36621,52.155761 C 339.74805,97.525391 331,119.88574 331,144.27588 c 0,20.84326 6.40527,40.26269 17.34766,56.3042 C 357.56543,214.06836 363,230.43164 363,248 c 0,46.22949 -37.34375,83.73633 -83.50977,83.99902 C 247.12109,332.02148 217.1582,341.61621 192,358.06055 166.81152,341.5957 136.80469,331.99805 104.39063,331.99805 58.279785,331.67285 21,294.19043 21,248 21,230.43262 26.43457,214.06836 35.652344,200.58008 46.594238,184.53857 53,165.11914 53,144.27588 53,119.88525 44.252441,97.525391 29.761719,80.183106 L 80.12793,28.027344 C 96.056641,37.936523 114.87451,43.669922 135,43.669922 c 21.02832,0 40.62988,-6.258789 57,-17 16.37012,10.741211 35.97168,17 57,17 20.12598,0 38.94336,-5.733399 54.87207,-15.642578 z M 249,31.669922 c 21.25488,0 40.83789,-7.217774 56.41211,-19.322266 l 65.40332,67.726563 C 353.70605,96.120117 343,118.94775 343,144.27588 c 0,18.354 5.63184,35.42529 15.25781,49.5376 C 368.78906,209.22266 375,227.92773 375,248 c 0,52.83398 -42.67871,95.69922 -95.44141,95.99805 C 246.71582,344.00977 216.57715,354.6543 192,372.65039 167.41064,354.64551 137.25244,343.99805 104.39062,343.99805 51.651367,343.67187 9,300.81641 9,248 9,227.92773 15.210938,209.22266 25.742187,193.81348 35.368164,179.70117 41,162.62988 41,144.27588 41,118.94775 30.293457,96.120117 13.18457,80.074219 L 78.587891,12.347656 C 94.162598,24.452148 113.74512,31.669922 135,31.669922 c 21.52197,0 41.33105,-7.398926 57,-19.780273 15.66895,12.381347 35.47754,19.780273 57,19.780273 z"
           id="path8"
           inkscape:connector-curvature="0"
           style="clip-rule:evenodd;fill-rule:evenodd" /></g><g
         id="g20"><g
           id="g14" /><g
           id="g18" /></g></g><g
       id="g28"
       transform="matrix(0.87288136,0,0,0.87288136,88.406779,88.406779)"><path
         d="m 176.90137,254.66992 c 0,13.39063 -5.04102,24.62695 -15.12256,33.70899 C 151.69678,297.45898 139.19092,302 124.26074,302 109.33057,302 96.824219,297.22852 86.742676,287.68555 76.661133,278.14258 71.620117,266.44531 71.620117,252.5918 c 0,-21.39453 5.463867,-42.21289 16.392578,-62.45313 C 98.940918,169.89795 113.33252,153.85205 131.18701,142 l 12.46729,20.54834 c -16.62305,12.9292 -29.24463,28.47559 -37.86426,46.63818 5.69531,-1.07715 11.85205,-1.61621 18.4707,-1.61621 14.31446,0 26.66651,4.61719 37.05615,13.85254 10.38965,9.23535 15.58448,20.31738 15.58448,33.24707 z m -24.47315,-0.46191 c 0,-6.00293 -2.77099,-11.19824 -8.31201,-15.58496 -5.54101,-4.38672 -12.15967,-6.58008 -19.85547,-6.58008 -7.54199,0 -14.04541,2.19336 -19.50928,6.58008 -5.464351,4.38672 -8.196284,9.58203 -8.196284,15.58496 0,6.31054 2.693359,11.69824 8.080564,16.16113 5.38721,4.46387 11.92871,6.69531 19.625,6.69531 7.54199,0 14.12207,-2.26953 19.74024,-6.81054 5.61816,-4.54102 8.42724,-9.88868 8.42724,-16.0459 z"
         id="path24"
         inkscape:connector-curvature="0"
         style="clip-rule:evenodd;fill-rule:evenodd" /><path
         d="m 312.37988,254.66992 c 0,13.39063 -5.04101,24.62695 -15.12207,33.70899 C 287.17578,297.45898 274.66992,302 259.73926,302 c -14.93067,0 -27.43653,-4.77148 -37.51758,-14.31445 -10.08203,-9.54297 -15.12305,-21.24024 -15.12305,-35.09375 0,-21.39453 5.46387,-42.21289 16.39258,-62.45313 C 234.41992,169.89795 248.81055,153.85205 266.66602,142 l 12.46679,20.54834 c -16.62304,12.9292 -29.24414,28.47559 -37.86426,46.63818 5.69532,-1.07715 11.85254,-1.61621 18.47071,-1.61621 14.31445,0 26.66699,4.61719 37.05664,13.85254 10.38965,9.23535 15.58398,20.31738 15.58398,33.24707 z m -24.47363,-0.46191 c 0,-6.00293 -2.76953,-11.19824 -8.31152,-15.58496 -5.54102,-4.38672 -12.15918,-6.58008 -19.85547,-6.58008 -7.54199,0 -14.04492,2.19336 -19.50879,6.58008 -5.46485,4.38672 -8.19727,9.58203 -8.19727,15.58496 0,6.31054 2.69434,11.69824 8.08106,16.16113 5.38769,4.46387 11.92871,6.69531 19.625,6.69531 7.54199,0 14.12207,-2.26953 19.74023,-6.81054 5.61817,-4.54102 8.42676,-9.88868 8.42676,-16.0459 z"
         id="path26"
         inkscape:connector-curvature="0"
         style="clip-rule:evenodd;fill-rule:evenodd" /></g><text
       xml:space="preserve"
       style="font-style:normal;font-weight:normal;font-size:40px;line-height:25px;font-family:sans-serif;letter-spacing:0px;word-spacing:0px;fill:#000000;fill-opacity:1;stroke:none;stroke-width:1px;stroke-linecap:butt;stroke-linejoin:miter;stroke-opacity:1"
       x="191.98438"
       y="188.2034"
       id="text4530"><tspan
         sodipodi:role="line"
         id="tspan4528"
         x="191.98438"
         y="188.2034"
         style="font-style:normal;font-variant:normal;font-weight:bold;font-stretch:normal;font-size:64px;line-height:48px;font-family:Roboto;-inkscape-font-specification:'Roboto, Bold';font-variant-ligatures:normal;font-variant-caps:normal;font-variant-numeric:normal;font-feature-settings:normal;text-align:start;writing-mode:lr-tb;text-anchor:start">DNS</tspan></text>
<g
       id="g4601"
       transform="matrix(0.87288136,0,0,0.87288136,-370.44068,135.59322)"><g
         id="g4597" /><g
         id="g4599" /></g><g
       transform="matrix(0.87288136,0,0,0.87288136,690.13092,-84.007014)"
       id="g4918"><g
         id="g4914" /><g
         id="g4916" /></g></g></svg>
